<?xml version="1.0" encoding="UTF-8"?>
<svg width="137px" height="137px" viewBox="0 0 137 137" version="1.1" xmlns="http://www.w3.org/2000/svg" xmlns:xlink="http://www.w3.org/1999/xlink">
    <!-- Generator: Sketch 52.1 (67048) - http://www.bohemiancoding.com/sketch -->
    <title>Shape</title>
    <desc>Created with Sketch.</desc>
    <g id="Page-1" stroke="none" stroke-width="1" fill="none" fill-rule="evenodd">
        <g id="QR-Results" transform="translate(-119.000000, -564.000000)" fill-rule="nonzero" stroke="#000000" stroke-width="3">
            <g id="noun_Pot-of-Gold_288217" transform="translate(121.000000, 566.000000)">
                <path d="M128.752313,30.7477561 C128.735688,30.7602246 128.739844,30.7726932 128.721141,30.7851618 C126.264797,32.4704974 124.65425,35.2967076 124.65425,38.5011312 C124.65425,39.9537201 124.988828,41.3273414 125.581094,42.5534178 C129.199109,49.7457071 133,60.5019306 133,76.4014409 C133,95.5635615 124.768547,110.205824 111.634797,119.794158 L115.820141,126.890854 C116.967266,128.840108 116.287719,131.329667 114.298953,132.453917 C112.310188,133.578166 109.768641,132.911098 108.621516,130.961844 L104.627359,124.183096 C93.8273438,129.97267 80.6873594,132.987987 66.5,132.987987 C52.3126406,132.987987 39.1726563,129.97267 28.3747188,124.183096 L24.3805625,130.961844 C23.2334375,132.90902 20.6918906,133.576088 18.703125,132.451839 C16.7143594,131.327589 16.0348125,128.83803 17.1819375,126.888776 L21.3652031,119.792079 C8.23145313,110.203746 0,95.5614834 0,76.4014409 C0,60.5019306 3.80089063,49.7477852 7.41890625,42.5534178 C8.00909375,41.3273414 8.34575,39.9537201 8.34575,38.5011312 C8.34575,35.2967076 6.73520313,32.4704974 4.27885938,30.7851618 C4.26015625,30.7726932 4.2643125,30.7602246 4.2476875,30.7477561 C1.5295,28.9356566 0,26.9780904 0,24.9290881 C0,19.8294412 9.2185625,15.2763335 23.6823125,12.227767 C21.6332813,15.0664458 20.4716094,18.0090293 20.3905625,20.8580986 C15.694,22.1111903 12.8760625,23.5700135 12.5373281,25.1348195 C13.2542813,29.6297406 37.1111563,33.2414709 66.5,33.2414709 C95.8805313,33.2414709 119.729094,29.6318187 120.462672,25.1389757 C120.115625,23.5222173 117.110656,22.0197541 112.141859,20.7354909 C111.850922,17.3627416 109.635641,14.2165046 106.109063,11.5731669 C122.424422,14.6030304 133,19.457462 133,24.9290881 C133,26.9780904 131.4705,28.9356566 128.752313,30.7477561 Z M107.858844,22.7678685 C106.296094,28.1709174 97.0962344,29.2826986 86.8801719,26.7453437 C86.0115156,26.5292218 85.1719531,26.2881627 84.3490156,26.034635 C86.2130938,23.9773202 87.2791719,21.5168549 87.2791719,18.6948009 C87.2791719,14.3266437 84.7272344,10.8333648 80.5876094,8.35835281 C83.906375,8.17755848 87.7862344,8.59941191 91.8344219,9.60521024 C102.054641,12.140487 109.419516,17.3648196 107.858844,22.7678685 Z M83.125,18.6948009 C83.125,25.2449586 73.8191563,29.0852795 62.34375,29.0852795 C57.7427813,29.0852795 53.5054844,28.4576946 50.0620313,27.2981172 C50.2449063,27.1983686 50.4277813,27.1090105 50.6085781,27.0051057 C59.5216563,21.9428645 65.5378281,14.9542286 65.851625,8.43939854 C75.6541406,9.14387299 83.125,12.8283367 83.125,18.6948009 Z M48.7819062,23.0317867 C38.9461406,28.7694089 29.0708906,30.0973121 25.8290156,24.4241108 C22.5871406,18.7509095 28.6615,10.7731 38.4993438,5.03547776 C48.3351094,-0.702144519 58.2103594,-2.03004768 61.4522344,3.64315363 C64.6941094,9.31635494 58.61975,17.2941644 48.7819062,23.0317867 Z" id="Shape"></path>
            </g>
        </g>
    </g>
</svg>